<svg width="908" height="851" viewBox="0 0 908 851" fill="none" xmlns="http://www.w3.org/2000/svg">
<path d="M452 0C239.37 0 67 172.37 67 385C67 446.991 81.6513 505.56 107.68 557.434C110.973 563.996 117.763 568 125.105 568H778.895C786.237 568 793.027 563.996 796.32 557.434C822.349 505.56 837 446.991 837 385C837 172.37 664.63 0 452 0Z" fill="url(#paint0_linear_0_1)"/>
<path d="M54.2 731.72C43.3767 731.72 33.9133 729.453 25.81 724.92C17.7633 720.33 11.5017 713.587 7.025 704.69C2.54833 695.737 0.31 684.715 0.31 671.625C0.31 658.195 2.54833 647.117 7.025 638.39C11.5017 629.607 17.7633 623.09 25.81 618.84C33.9133 614.533 43.3767 612.38 54.2 612.38C65.1367 612.38 74.6567 614.618 82.76 619.095C90.92 623.572 97.2383 630.202 101.715 638.985C106.192 647.768 108.43 658.648 108.43 671.625C108.43 684.942 106.192 696.077 101.715 705.03C97.2383 713.927 90.92 720.613 82.76 725.09C74.6567 729.51 65.1367 731.72 54.2 731.72ZM89.985 761.895C83.7517 761.895 77.8583 760.167 72.305 756.71C66.7517 753.31 62.105 748.607 58.365 742.6L46.635 723.985L66.865 712.595L76.725 729.17C78.085 731.38 79.87 732.91 82.08 733.76C84.3467 734.667 86.6983 735.177 89.135 735.29C91.7983 735.29 94.49 734.978 97.21 734.355C99.93 733.732 102.735 732.91 105.625 731.89V759.005C102.905 760.082 100.27 760.818 97.72 761.215C95.2267 761.668 92.6483 761.895 89.985 761.895ZM54.2 707.325C62.1333 707.325 68.48 704.208 73.24 697.975C78 691.685 80.38 682.845 80.38 671.455C80.38 660.745 78 652.302 73.24 646.125C68.48 639.892 62.1333 636.775 54.2 636.775C46.4933 636.775 40.26 639.892 35.5 646.125C30.74 652.302 28.36 660.802 28.36 671.625C28.36 682.902 30.74 691.685 35.5 697.975C40.26 704.208 46.4933 707.325 54.2 707.325ZM146.116 614.93H173.316V684.12C173.316 692.223 175.384 698.06 179.521 701.63C183.657 705.2 188.842 706.985 195.076 706.985C201.422 706.985 206.664 705.2 210.801 701.63C214.994 698.06 217.091 692.223 217.091 684.12V614.93H244.206V684.12C244.206 693.753 242.307 702.14 238.511 709.28C234.714 716.42 229.161 721.945 221.851 725.855C214.541 729.765 205.616 731.72 195.076 731.72C184.536 731.72 175.611 729.765 168.301 725.855C161.047 721.945 155.522 716.42 151.726 709.28C147.986 702.14 146.116 693.753 146.116 684.12V614.93ZM287.898 729V614.93H315.098V729H287.898ZM427.311 614.93H464.456L386.851 693.81V657.345L427.311 614.93ZM409.206 661L467.686 729H432.921L390.676 678.765L409.206 661ZM361.011 614.93H388.381V729H361.011V614.93ZM484.198 638.475V614.93H578.123V638.475H538.768L544.888 632.355V729H517.688V632.355L523.808 638.475H484.198ZM610.5 729V614.93H655.04C669.32 614.93 680.398 618.217 688.275 624.79C696.208 631.307 700.175 640.062 700.175 651.055C700.175 661.822 696.208 670.463 688.275 676.98C680.398 683.44 669.32 686.67 655.04 686.67H637.7V729H610.5ZM670 729L642.205 673.92H670.935L705.615 729H670ZM637.7 668.99H651.98C658.723 668.99 663.766 667.602 667.11 664.825C670.51 661.992 672.21 658.393 672.21 654.03C672.21 649.497 670.765 645.785 667.875 642.895C665.041 639.948 660.763 638.475 655.04 638.475H637.7V668.99ZM742.383 729V614.93H769.583V729H742.383ZM854.681 698.825L879.331 614.93H907.721L869.981 729H841.251L804.191 614.93H832.921L857.061 698.825H854.681Z" fill="white"/>
<circle cx="326.5" cy="813.5" r="37.5" fill="url(#paint1_linear_0_1)"/>
<circle cx="451.5" cy="813.5" r="37.5" fill="#E1604B"/>
<circle cx="576.5" cy="813.5" r="37.5" fill="#FFE587"/>
<defs>
<linearGradient id="paint0_linear_0_1" x1="452" y1="568" x2="452" y2="0" gradientUnits="userSpaceOnUse">
<stop stop-color="#DE1957"/>
<stop offset="0.5" stop-color="#E1604B"/>
<stop offset="1" stop-color="#FFE587"/>
</linearGradient>
<linearGradient id="paint1_linear_0_1" x1="326.5" y1="776" x2="326.5" y2="851" gradientUnits="userSpaceOnUse">
<stop offset="1" stop-color="#DE1957"/>
<stop offset="1" stop-color="#780E2F"/>
</linearGradient>
</defs>
</svg>
