<svg width="908" height="150" viewBox="0 0 908 150" fill="none" xmlns="http://www.w3.org/2000/svg">
<path d="M54.2 119.72C43.3767 119.72 33.9133 117.453 25.81 112.92C17.7633 108.33 11.5017 101.587 7.025 92.69C2.54833 83.7367 0.31 72.715 0.31 59.625C0.31 46.195 2.54833 35.1167 7.025 26.39C11.5017 17.6067 17.7633 11.09 25.81 6.84C33.9133 2.53333 43.3767 0.379992 54.2 0.379992C65.1367 0.379992 74.6567 2.61832 82.76 7.09499C90.92 11.5717 97.2383 18.2017 101.715 26.985C106.192 35.7683 108.43 46.6483 108.43 59.625C108.43 72.9417 106.192 84.0767 101.715 93.03C97.2383 101.927 90.92 108.613 82.76 113.09C74.6567 117.51 65.1367 119.72 54.2 119.72ZM89.985 149.895C83.7517 149.895 77.8583 148.167 72.305 144.71C66.7517 141.31 62.105 136.607 58.365 130.6L46.635 111.985L66.865 100.595L76.725 117.17C78.085 119.38 79.87 120.91 82.08 121.76C84.3467 122.667 86.6983 123.177 89.135 123.29C91.7983 123.29 94.49 122.978 97.21 122.355C99.93 121.732 102.735 120.91 105.625 119.89V147.005C102.905 148.082 100.27 148.818 97.72 149.215C95.2267 149.668 92.6483 149.895 89.985 149.895ZM54.2 95.325C62.1333 95.325 68.48 92.2083 73.24 85.975C78 79.685 80.38 70.845 80.38 59.455C80.38 48.745 78 40.3017 73.24 34.125C68.48 27.8917 62.1333 24.775 54.2 24.775C46.4933 24.775 40.26 27.8917 35.5 34.125C30.74 40.3017 28.36 48.8017 28.36 59.625C28.36 70.9017 30.74 79.685 35.5 85.975C40.26 92.2083 46.4933 95.325 54.2 95.325ZM146.116 2.93H173.316V72.12C173.316 80.2233 175.384 86.06 179.521 89.63C183.657 93.2 188.842 94.985 195.076 94.985C201.422 94.985 206.664 93.2 210.801 89.63C214.994 86.06 217.091 80.2233 217.091 72.12V2.93H244.206V72.12C244.206 81.7533 242.307 90.14 238.511 97.28C234.714 104.42 229.161 109.945 221.851 113.855C214.541 117.765 205.616 119.72 195.076 119.72C184.536 119.72 175.611 117.765 168.301 113.855C161.047 109.945 155.522 104.42 151.726 97.28C147.986 90.14 146.116 81.7533 146.116 72.12V2.93ZM287.898 117V2.93H315.098V117H287.898ZM427.311 2.93H464.456L386.851 81.81V45.345L427.311 2.93ZM409.206 49L467.686 117H432.921L390.676 66.765L409.206 49ZM361.011 2.93H388.381V117H361.011V2.93ZM484.198 26.475V2.93H578.123V26.475H538.768L544.888 20.355V117H517.688V20.355L523.808 26.475H484.198ZM610.5 117V2.93H655.04C669.32 2.93 680.398 6.21666 688.275 12.79C696.208 19.3067 700.175 28.0617 700.175 39.055C700.175 49.8217 696.208 58.4633 688.275 64.98C680.398 71.44 669.32 74.67 655.04 74.67H637.7V117H610.5ZM670 117L642.205 61.92H670.935L705.615 117H670ZM637.7 56.99H651.98C658.723 56.99 663.766 55.6017 667.11 52.825C670.51 49.9917 672.21 46.3933 672.21 42.03C672.21 37.4967 670.765 33.785 667.875 30.895C665.041 27.9483 660.763 26.475 655.04 26.475H637.7V56.99ZM742.383 117V2.93H769.583V117H742.383ZM854.681 86.825L879.331 2.93H907.721L869.981 117H841.251L804.191 2.93H832.921L857.061 86.825H854.681Z" fill="white"/>
</svg>
